<svg data-v-423bf9ae="" xmlns="http://www.w3.org/2000/svg" viewBox="0 0 446 112" class="iconLeftSlogan"><g data-v-423bf9ae="" id="c28b1eef-43a3-4595-a334-6e66bdb96853" fill="white" transform="matrix(4.231311798095703,0,0,4.231311798095703,108.91082000732422,2.9619181156158447)"><path d="M4.06 5.74L4.06 5.74Q2.27 5.50 1.44 4.77Q0.62 4.05 0.62 2.70L0.62 2.70L0.62 2.56Q0.62 1.11 1.60 0.25Q2.59-0.60 4.35-0.60L4.35-0.60Q6.27-0.60 7.17 0.31Q8.08 1.22 8.08 3.08L8.08 3.08L8.08 3.40L6.20 3.40Q6.20 2.17 5.77 1.60Q5.33 1.04 4.37 1.04L4.37 1.04L4.24 1.04Q3.47 1.04 3.00 1.43Q2.53 1.82 2.53 2.46L2.53 2.46L2.53 2.55Q2.53 3.26 2.98 3.64Q3.43 4.02 4.66 4.19L4.66 4.19Q6.48 4.44 7.33 5.15Q8.18 5.87 8.18 7.28L8.18 7.28L8.18 7.43Q8.18 8.97 7.17 9.83Q6.17 10.68 4.35 10.68L4.35 10.68Q0.52 10.68 0.52 6.96L0.52 6.96L0.52 6.82L2.39 6.82Q2.39 9.04 4.28 9.04L4.28 9.04L4.41 9.04Q5.28 9.04 5.77 8.62Q6.26 8.20 6.26 7.50L6.26 7.50L6.26 7.42Q6.26 6.69 5.77 6.30Q5.28 5.91 4.06 5.74ZM11.35 10.50L9.53 10.50L9.53 3.08L11.35 3.08L11.35 10.50ZM9.45-0.18L11.44-0.18L11.44 1.79L9.45 1.79L9.45-0.18ZM17.46 10.39L17.46 10.39L17.46 9.35Q16.74 10.21 15.48 10.21L15.48 10.21Q14.06 10.21 13.38 9.28Q12.70 8.36 12.70 6.73L12.70 6.73L12.70 6.37Q12.70 4.80 13.38 3.85Q14.07 2.90 15.48 2.90L15.48 2.90Q16.93 2.90 17.63 3.99L17.63 3.99L17.78 3.08L19.39 3.08L19.28 5.18L19.28 10.42Q19.28 13.48 16.02 13.48L16.02 13.48Q14.34 13.48 13.59 12.74Q12.84 12.00 12.84 10.77L12.84 10.77L12.84 10.50L14.56 10.50Q14.56 11.23 14.88 11.61Q15.20 11.98 15.97 11.98L15.97 11.98Q16.76 11.98 17.11 11.61Q17.46 11.23 17.46 10.39ZM17.46 7.78L17.46 7.78L17.46 5.33Q16.91 4.48 15.99 4.48L15.99 4.48Q15.27 4.48 14.90 4.99Q14.52 5.50 14.52 6.37L14.52 6.37L14.52 6.73Q14.52 8.62 15.99 8.62L15.99 8.62Q16.90 8.62 17.46 7.78ZM27.23 5.42L27.23 10.50L25.42 10.50L25.42 5.71Q25.42 5.15 25.13 4.82Q24.84 4.48 24.25 4.48L24.25 4.48Q23.23 4.48 22.71 5.33L22.71 5.33L22.71 10.50L20.89 10.50L20.89 5.18L20.76 3.08L22.37 3.08L22.54 4.06Q23.34 2.90 24.95 2.90L24.95 2.90Q26.10 2.90 26.66 3.61Q27.23 4.33 27.23 5.42L27.23 5.42ZM34.85 10.50L33.24 10.50L33.10 9.65Q32.20 10.68 30.67 10.68L30.67 10.68Q29.55 10.68 28.99 10.07Q28.43 9.45 28.43 8.50L28.43 8.50L28.43 8.36Q28.43 7.24 29.11 6.73Q29.79 6.22 31.02 6.03L31.02 6.03L32.91 5.74L32.91 5.71Q32.91 4.98 32.64 4.65Q32.37 4.31 31.68 4.31L31.68 4.31Q30.45 4.31 30.45 5.53L30.45 5.53L28.71 5.53L28.71 5.40Q28.71 4.33 29.41 3.61Q30.10 2.90 31.72 2.90L31.72 2.90Q33.38 2.90 34.05 3.61Q34.73 4.33 34.73 5.71L34.73 5.71L34.73 8.40L34.85 10.50ZM31.30 9.18L31.30 9.18Q32.34 9.18 32.91 8.41L32.91 8.41L32.91 6.85L31.36 7.10Q30.25 7.28 30.25 8.16L30.25 8.16L30.25 8.27Q30.25 8.65 30.52 8.92Q30.79 9.18 31.30 9.18ZM38.15 10.50L36.33 10.50L36.33-0.70L38.15-0.70L38.15 10.50ZM47.57-0.42L44.70 10.56L42.11 10.56L39.24-0.42L41.26-0.42L43.41 8.41L45.56-0.42L47.57-0.42ZM54.71 10.50L53.10 10.50L52.96 9.65Q52.07 10.68 50.54 10.68L50.54 10.68Q49.42 10.68 48.86 10.07Q48.30 9.45 48.30 8.50L48.30 8.50L48.30 8.36Q48.30 7.24 48.98 6.73Q49.66 6.22 50.89 6.03L50.89 6.03L52.78 5.74L52.78 5.71Q52.78 4.98 52.51 4.65Q52.23 4.31 51.55 4.31L51.55 4.31Q50.32 4.31 50.32 5.53L50.32 5.53L48.58 5.53L48.58 5.40Q48.58 4.33 49.27 3.61Q49.97 2.90 51.59 2.90L51.59 2.90Q53.24 2.90 53.92 3.61Q54.60 4.33 54.60 5.71L54.60 5.71L54.60 8.40L54.71 10.50ZM51.17 9.18L51.17 9.18Q52.21 9.18 52.78 8.41L52.78 8.41L52.78 6.85L51.23 7.10Q50.12 7.28 50.12 8.16L50.12 8.16L50.12 8.27Q50.12 8.65 50.39 8.92Q50.65 9.18 51.17 9.18ZM56.08 8.15L56.08 3.08L57.89 3.08L57.89 7.87Q57.89 9.09 59.08 9.09L59.08 9.09Q60.09 9.09 60.62 8.25L60.62 8.25L60.62 3.08L62.44 3.08L62.44 8.40L62.55 10.50L60.94 10.50L60.77 9.52Q59.98 10.68 58.37 10.68L58.37 10.68Q57.22 10.68 56.65 9.97Q56.08 9.25 56.08 8.15L56.08 8.15ZM65.90 10.50L64.08 10.50L64.08-0.70L65.90-0.70L65.90 10.50ZM70.01 0.98L70.01 3.08L72.07 3.08L72.07 4.68L70.01 4.68L70.01 7.88Q70.01 8.58 70.31 8.83Q70.60 9.09 71.22 9.09L71.22 9.09Q71.74 9.09 71.93 8.99L71.93 8.99L71.93 10.50Q71.57 10.68 70.78 10.68L70.78 10.68Q68.19 10.68 68.19 8.08L68.19 8.08L68.19 4.68L67.06 4.68L67.06 3.08L68.19 3.08L68.19 0.98L70.01 0.98ZM75.57 0L74.62 0L74.62 3.08L73.82 3.08L73.82 0L72.87 0L72.87-0.70L75.57-0.70L75.57 0ZM78.86 1.51L78.89 0.64L78.25 3.08L77.39 3.08L76.75 0.64L76.78 1.51L76.78 3.08L75.98 3.08L75.98-0.70L77.18-0.70L77.83 1.72L78.46-0.70L79.66-0.70L79.66 3.08L78.86 3.08L78.86 1.51Z"></path></g><g data-v-423bf9ae="" id="171c4c66-18c5-4c97-9d21-3ab456491235" transform="matrix(1.1111111640930176,0,0,1.1111111640930176,0.4444422721862793,0.4444417953491211)" stroke="none" fill="white"><path d="M82 30V0H52v12h-8V0h-6v47h-8V35H0v30h30V53h8v47h6V88h8v12h30V70H52v12h-8V18h8v12z"></path></g><g data-v-423bf9ae="" id="e3444003-4db5-48ac-87d2-b92a3940ee38" fill="white" transform="matrix(0.3538079857826233,0,0,0.3538079857826233,110.96610260009766,59.82309341430664)"><path d="M8.06 7.99C7.42 8.64 6.45 8.99 5.60 8.99C3.18 8.99 2.24 7.29 2.23 5.67C2.21 4.03 3.23 2.27 5.60 2.27C6.45 2.27 7.32 2.56 7.97 3.19L9.20 2.00C8.19 1.01 6.93 0.50 5.60 0.50C2.06 0.50 0.39 3.11 0.41 5.67C0.42 8.22 1.96 10.72 5.60 10.72C7.01 10.72 8.32 10.26 9.32 9.27ZM20.34 3.46C18.14 3.46 16.77 5.08 16.77 7.06C16.77 9.04 18.12 10.65 20.36 10.65C22.60 10.65 23.95 9.04 23.95 7.06C23.95 5.08 22.54 3.46 20.34 3.46ZM20.36 5.01C21.50 5.01 22.23 6.02 22.23 7.06C22.23 8.11 21.60 9.09 20.36 9.09C19.11 9.09 18.48 8.11 18.48 7.06C18.48 6.02 19.12 5.01 20.36 5.01ZM38.92 10.50L38.92 6.87C38.92 4.70 37.62 3.49 35.99 3.49C35.13 3.49 34.43 3.84 33.73 4.52L33.61 3.58L32.09 3.58L32.09 10.50L33.78 10.50L33.78 6.97C33.78 5.92 34.50 5.04 35.55 5.04C36.64 5.04 37.21 5.84 37.21 6.89L37.21 10.50ZM47.80 1.83L47.80 3.61L46.51 3.61L46.51 5.08L47.80 5.08L47.80 8.06C47.80 9.79 48.78 10.64 50.27 10.58C50.79 10.57 51.20 10.49 51.69 10.29L51.21 8.83C50.96 8.96 50.65 9.04 50.39 9.04C49.85 9.04 49.49 8.72 49.49 8.06L49.49 5.08L51.41 5.08L51.41 3.61L49.50 3.61L49.50 1.65ZM61.39 3.57L61.39 10.50L59.68 10.50L59.68 3.57ZM59.53 1.65C59.53 2.98 61.54 2.98 61.54 1.65C61.54 0.32 59.53 0.32 59.53 1.65ZM76.72 10.50L76.72 6.87C76.72 4.70 75.42 3.49 73.79 3.49C72.93 3.49 72.23 3.84 71.53 4.52L71.41 3.58L69.89 3.58L69.89 10.50L71.58 10.50L71.58 6.97C71.58 5.92 72.30 5.04 73.35 5.04C74.44 5.04 75.01 5.84 75.01 6.89L75.01 10.50ZM84.95 3.60L84.95 7.22C84.95 9.37 86.16 10.61 87.81 10.61C88.77 10.61 89.43 10.28 90.15 9.58L90.26 10.51L91.78 10.51L91.78 3.60L90.09 3.60L90.09 7.13C90.09 8.18 89.38 9.06 88.33 9.06C87.23 9.06 86.66 8.26 86.66 7.21L86.66 3.60ZM103.54 3.46C101.35 3.46 99.97 5.08 99.97 7.06C99.97 9.04 101.32 10.65 103.56 10.65C105.80 10.65 107.16 9.04 107.16 7.06C107.16 5.08 105.74 3.46 103.54 3.46ZM103.56 5.01C104.71 5.01 105.43 6.02 105.43 7.06C105.43 8.11 104.80 9.09 103.56 9.09C102.31 9.09 101.68 8.11 101.68 7.06C101.68 6.02 102.33 5.01 103.56 5.01ZM115.37 3.60L115.37 7.22C115.37 9.37 116.58 10.61 118.23 10.61C119.20 10.61 119.85 10.28 120.57 9.58L120.68 10.51L122.21 10.51L122.21 3.60L120.51 3.60L120.51 7.13C120.51 8.18 119.80 9.06 118.75 9.06C117.66 9.06 117.08 8.26 117.08 7.21L117.08 3.60ZM136.18 4.31C135.38 3.61 134.57 3.40 133.49 3.40C132.23 3.40 130.58 3.96 130.58 5.56C130.58 7.13 132.13 7.60 133.43 7.70C134.41 7.76 134.81 7.95 134.81 8.43C134.81 8.93 134.20 9.27 133.56 9.25C132.79 9.24 131.67 8.83 131.18 8.29L130.34 9.51C131.35 10.56 132.44 10.74 133.53 10.74C135.51 10.74 136.50 9.69 136.50 8.47C136.50 6.64 134.85 6.34 133.55 6.26C132.66 6.20 132.26 5.95 132.26 5.50C132.26 5.07 132.71 4.82 133.52 4.82C134.18 4.82 134.74 4.97 135.23 5.43ZM160.99 6.78L156.18 0.70L154.69 0.70L154.69 10.50L156.53 10.50L156.53 3.89L161.69 10.51L161.69 10.50L162.83 10.50L162.83 0.69L160.99 0.69ZM178.25 7.66C178.51 4.82 177.07 3.39 174.76 3.39C172.52 3.39 171.09 4.90 171.09 7C171.09 9.21 172.51 10.68 174.89 10.68C175.94 10.68 177.13 10.32 177.86 9.56L176.76 8.48C176.37 8.89 175.55 9.13 174.92 9.13C173.71 9.13 172.97 8.51 172.86 7.66ZM172.89 6.24C173.14 5.35 173.89 4.90 174.82 4.90C175.80 4.90 176.50 5.35 176.61 6.24ZM186.97 1.83L186.97 3.61L185.68 3.61L185.68 5.08L186.97 5.08L186.97 8.06C186.97 9.79 187.95 10.64 189.45 10.58C189.97 10.57 190.37 10.49 190.86 10.29L190.39 8.83C190.13 8.96 189.83 9.04 189.56 9.04C189.03 9.04 188.66 8.72 188.66 8.06L188.66 5.08L190.58 5.08L190.58 3.61L188.68 3.61L188.68 1.65ZM203.70 3.58L202.20 8.78L200.62 3.58L198.72 3.58L201.14 10.53L203.13 10.53L203.84 8.48L204.46 6.17L205.07 8.48L205.79 10.53L207.77 10.53L210.18 3.58L208.29 3.58L206.71 8.78L205.20 3.58ZM221.87 3.46C219.67 3.46 218.30 5.08 218.30 7.06C218.30 9.04 219.65 10.65 221.89 10.65C224.13 10.65 225.48 9.04 225.48 7.06C225.48 5.08 224.07 3.46 221.87 3.46ZM221.89 5.01C223.03 5.01 223.76 6.02 223.76 7.06C223.76 8.11 223.13 9.09 221.89 9.09C220.64 9.09 220.01 8.11 220.01 7.06C220.01 6.02 220.65 5.01 221.89 5.01ZM233.66 3.60L233.66 10.50L235.37 10.50L235.37 6.86C235.37 5.59 236.19 5.11 237.09 5.11C237.65 5.11 237.97 5.26 238.32 5.56L239.09 4.07C238.71 3.70 238.03 3.42 237.31 3.42C236.61 3.42 235.90 3.54 235.37 4.40L235.24 3.60ZM246.69 0.71L246.69 10.50L248.40 10.50L248.40 7.38L251.10 10.50L253.16 10.50L253.16 10.37L249.96 6.85L252.77 3.70L252.77 3.60L250.73 3.60L248.40 6.37L248.40 0.71ZM272.75 10.50L272.75 0.70L270.91 0.70L270.91 10.50ZM288.15 10.50L288.15 6.87C288.15 4.70 286.85 3.49 285.22 3.49C284.35 3.49 283.65 3.84 282.95 4.52L282.84 3.58L281.32 3.58L281.32 10.50L283.01 10.50L283.01 6.97C283.01 5.92 283.72 5.04 284.77 5.04C285.87 5.04 286.44 5.84 286.44 6.89L286.44 10.50ZM297.02 1.83L297.02 3.61L295.74 3.61L295.74 5.08L297.02 5.08L297.02 8.06C297.02 9.79 298.00 10.64 299.50 10.58C300.02 10.57 300.43 10.49 300.92 10.29L300.44 8.83C300.19 8.96 299.88 9.04 299.61 9.04C299.08 9.04 298.72 8.72 298.72 8.06L298.72 5.08L300.64 5.08L300.64 3.61L298.73 3.61L298.73 1.65ZM315.76 7.66C316.02 4.82 314.58 3.39 312.27 3.39C310.03 3.39 308.60 4.90 308.60 7C308.60 9.21 310.02 10.68 312.40 10.68C313.45 10.68 314.64 10.32 315.36 9.56L314.27 8.48C313.88 8.89 313.05 9.13 312.42 9.13C311.22 9.13 310.48 8.51 310.37 7.66ZM310.39 6.24C310.65 5.35 311.40 4.90 312.33 4.90C313.31 4.90 314.01 5.35 314.12 6.24ZM324.07 0.71L324.07 10.50L325.77 10.50L325.77 0.71ZM334.26 0.71L334.26 10.50L335.96 10.50L335.96 0.71ZM346.16 3.57L346.16 10.50L344.46 10.50L344.46 3.57ZM344.30 1.65C344.30 2.98 346.32 2.98 346.32 1.65C346.32 0.32 344.30 0.32 344.30 1.65ZM359.44 3.77C358.96 3.44 358.40 3.37 357.85 3.37C355.92 3.37 354.35 4.72 354.35 6.87C354.35 9.03 355.70 10.35 357.85 10.35C358.71 10.35 359.60 10.78 359.60 11.73C359.60 12.68 358.83 13.22 357.85 13.22C356.87 13.22 356.05 12.63 356.05 11.73L354.35 11.73C354.35 13.59 355.85 14.81 357.85 14.81C359.86 14.81 361.31 13.64 361.31 11.73C361.31 10.85 361.03 10.02 359.88 9.45C361.02 8.93 361.34 7.73 361.34 6.87C361.34 6.12 361.14 5.43 360.61 4.83L361.38 3.85L360.12 2.90ZM357.85 4.93C358.83 4.93 359.65 5.68 359.65 6.87C359.65 8.06 358.83 8.79 357.85 8.79C356.86 8.79 356.05 8.08 356.05 6.87C356.05 5.67 356.86 4.93 357.85 4.93ZM376.28 7.66C376.54 4.82 375.10 3.39 372.79 3.39C370.55 3.39 369.12 4.90 369.12 7C369.12 9.21 370.54 10.68 372.92 10.68C373.97 10.68 375.16 10.32 375.89 9.56L374.79 8.48C374.40 8.89 373.58 9.13 372.95 9.13C371.74 9.13 371 8.51 370.89 7.66ZM370.92 6.24C371.17 5.35 371.92 4.90 372.85 4.90C373.83 4.90 374.53 5.35 374.64 6.24ZM391.38 10.50L391.38 6.87C391.38 4.70 390.08 3.49 388.46 3.49C387.59 3.49 386.89 3.84 386.19 4.52L386.08 3.58L384.55 3.58L384.55 10.50L386.25 10.50L386.25 6.97C386.25 5.92 386.96 5.04 388.01 5.04C389.10 5.04 389.68 5.84 389.68 6.89L389.68 10.50ZM404.63 8.50C404.21 8.92 403.66 9.07 403.12 9.07C402.05 9.07 401.16 8.37 401.16 7.06C401.16 5.85 402.00 5.01 403.14 5.01C403.62 5.01 404.12 5.19 404.53 5.56L405.61 4.42C404.85 3.68 404.10 3.40 403.12 3.40C401.11 3.40 399.45 4.61 399.45 7.06C399.45 9.51 401.11 10.71 403.12 10.71C404.14 10.71 404.98 10.40 405.78 9.62ZM420.66 7.66C420.92 4.82 419.48 3.39 417.17 3.39C414.93 3.39 413.50 4.90 413.50 7C413.50 9.21 414.92 10.68 417.30 10.68C418.35 10.68 419.54 10.32 420.27 9.56L419.17 8.48C418.78 8.89 417.96 9.13 417.33 9.13C416.12 9.13 415.38 8.51 415.27 7.66ZM415.30 6.24C415.55 5.35 416.30 4.90 417.23 4.90C418.21 4.90 418.91 5.35 419.02 6.24ZM440.78 2.45L443.55 2.45C445.90 2.45 445.91 5.92 443.55 5.92L440.78 5.92ZM443.55 0.69C442.01 0.69 440.47 0.70 438.93 0.70L438.93 10.50L440.78 10.50L440.78 7.62L443.55 7.62C448.35 7.62 448.34 0.69 443.55 0.69ZM458.22 3.46C456.02 3.46 454.65 5.08 454.65 7.06C454.65 9.04 455.99 10.65 458.23 10.65C460.47 10.65 461.83 9.04 461.83 7.06C461.83 5.08 460.42 3.46 458.22 3.46ZM458.23 5.01C459.38 5.01 460.11 6.02 460.11 7.06C460.11 8.11 459.48 9.09 458.23 9.09C456.99 9.09 456.36 8.11 456.36 7.06C456.36 6.02 457.00 5.01 458.23 5.01ZM474.56 3.58L473.06 8.78L471.48 3.58L469.57 3.58L472.00 10.53L473.98 10.53L474.70 8.48L475.31 6.17L475.93 8.48L476.64 10.53L478.63 10.53L481.04 3.58L479.15 3.58L477.57 8.78L476.06 3.58ZM496.33 7.66C496.59 4.82 495.15 3.39 492.84 3.39C490.60 3.39 489.17 4.90 489.17 7C489.17 9.21 490.59 10.68 492.97 10.68C494.02 10.68 495.21 10.32 495.94 9.56L494.84 8.48C494.45 8.89 493.63 9.13 493.00 9.13C491.79 9.13 491.05 8.51 490.94 7.66ZM490.97 6.24C491.22 5.35 491.97 4.90 492.90 4.90C493.88 4.90 494.58 5.35 494.69 6.24ZM504.64 3.60L504.64 10.50L506.35 10.50L506.35 6.86C506.35 5.59 507.18 5.11 508.07 5.11C508.63 5.11 508.96 5.26 509.31 5.56L510.08 4.07C509.70 3.70 509.01 3.42 508.30 3.42C507.60 3.42 506.88 3.54 506.35 4.40L506.23 3.60ZM524.57 7.66C524.83 4.82 523.39 3.39 521.08 3.39C518.84 3.39 517.41 4.90 517.41 7C517.41 9.21 518.83 10.68 521.21 10.68C522.26 10.68 523.45 10.32 524.17 9.56L523.08 8.48C522.69 8.89 521.86 9.13 521.23 9.13C520.03 9.13 519.29 8.51 519.18 7.66ZM519.20 6.24C519.46 5.35 520.21 4.90 521.14 4.90C522.12 4.90 522.82 5.35 522.93 6.24ZM536.23 5.03C537.31 5.03 538.23 5.84 538.23 7.04C538.23 8.29 537.31 9.07 536.23 9.07C535.14 9.07 534.27 8.25 534.27 7.04C534.27 5.80 535.14 5.03 536.23 5.03ZM538.34 0.71L538.34 4.54C537.94 3.82 536.80 3.43 536.07 3.43C534.06 3.43 532.56 4.66 532.56 7.04C532.56 9.31 534.09 10.65 536.12 10.65C536.96 10.65 537.81 10.37 538.34 9.55L538.45 10.50L540.05 10.50L540.05 0.71ZM562.18 5.03C563.28 5.03 564.14 5.80 564.14 7.04C564.14 8.25 563.28 9.07 562.18 9.07C561.11 9.07 560.18 8.29 560.18 7.04C560.18 5.84 561.11 5.03 562.18 5.03ZM558.36 0.71L558.36 10.50L559.96 10.50L560.07 9.55C560.60 10.37 561.46 10.65 562.30 10.65C564.33 10.65 565.85 9.31 565.85 7.04C565.85 4.66 564.35 3.43 562.34 3.43C561.61 3.43 560.48 3.82 560.07 4.54L560.07 0.71ZM578.89 3.60L577.63 6.62L576.91 8.53L576.25 6.58L575.20 3.60L573.22 3.60L575.97 10.39L574.69 13.38L576.56 13.38L580.78 3.60ZM600.47 2.45L603.25 2.45C605.60 2.45 605.61 5.92 603.25 5.92L600.47 5.92ZM603.25 0.69C601.71 0.69 600.17 0.70 598.63 0.70L598.63 10.50L600.47 10.50L600.47 7.62L603.25 7.62C608.05 7.62 608.03 0.69 603.25 0.69ZM620.09 4.55C619.70 3.86 618.81 3.43 617.89 3.43C615.87 3.42 614.29 4.66 614.29 7.04C614.29 9.46 615.80 10.72 617.85 10.71C618.62 10.70 619.70 10.30 620.09 9.49L620.17 10.50L621.78 10.50L621.78 3.60L620.14 3.60ZM618.04 4.96C620.73 4.96 620.73 9.14 618.04 9.14C616.91 9.14 616 8.36 616 7.04C616 5.73 616.91 4.96 618.04 4.96ZM635.15 8.50C634.73 8.92 634.19 9.07 633.64 9.07C632.58 9.07 631.68 8.37 631.68 7.06C631.68 5.85 632.52 5.01 633.67 5.01C634.14 5.01 634.65 5.19 635.05 5.56L636.13 4.42C635.38 3.68 634.62 3.40 633.64 3.40C631.64 3.40 629.97 4.61 629.97 7.06C629.97 9.51 631.64 10.71 633.64 10.71C634.66 10.71 635.50 10.40 636.30 9.62ZM644.01 0.71L644.01 10.50L645.72 10.50L645.72 7.38L648.42 10.50L650.48 10.50L650.48 10.37L647.28 6.85L650.09 3.70L650.09 3.60L648.05 3.60L645.72 6.37L645.72 0.71ZM665.11 7.66C665.38 4.82 663.94 3.39 661.63 3.39C659.39 3.39 657.96 4.90 657.96 7C657.96 9.21 659.37 10.68 661.75 10.68C662.80 10.68 663.99 10.32 664.72 9.56L663.63 8.48C663.24 8.89 662.41 9.13 661.78 9.13C660.58 9.13 659.83 8.51 659.72 7.66ZM659.75 6.24C660.00 5.35 660.76 4.90 661.68 4.90C662.66 4.90 663.36 5.35 663.47 6.24ZM673.83 1.83L673.83 3.61L672.55 3.61L672.55 5.08L673.83 5.08L673.83 8.06C673.83 9.79 674.81 10.64 676.31 10.58C676.83 10.57 677.24 10.49 677.73 10.29L677.25 8.83C677.00 8.96 676.69 9.04 676.42 9.04C675.89 9.04 675.53 8.72 675.53 8.06L675.53 5.08L677.45 5.08L677.45 3.61L675.54 3.61L675.54 1.65ZM698.21 10.50L700.06 10.50L700.06 2.38L703.16 2.38L703.16 0.70C700.32 0.70 697.93 0.70 695.10 0.70L695.10 2.38L698.21 2.38ZM709.70 3.60L709.70 10.50L711.41 10.50L711.41 6.86C711.41 5.59 712.24 5.11 713.13 5.11C713.69 5.11 714.01 5.26 714.36 5.56L715.13 4.07C714.76 3.70 714.07 3.42 713.36 3.42C712.66 3.42 711.94 3.54 711.41 4.40L711.28 3.60ZM722.96 3.60L722.96 7.22C722.96 9.37 724.16 10.61 725.82 10.61C726.78 10.61 727.44 10.28 728.15 9.58L728.27 10.51L729.79 10.51L729.79 3.60L728.10 3.60L728.10 7.13C728.10 8.18 727.38 9.06 726.33 9.06C725.24 9.06 724.67 8.26 724.67 7.21L724.67 3.60ZM739.00 1.83L739.00 3.61L737.72 3.61L737.72 5.08L739.00 5.08L739.00 8.06C739.00 9.79 739.98 10.64 741.48 10.58C742 10.57 742.41 10.49 742.90 10.29L742.42 8.83C742.17 8.96 741.86 9.04 741.59 9.04C741.06 9.04 740.70 8.72 740.70 8.06L740.70 5.08L742.62 5.08L742.62 3.61L740.71 3.61L740.71 1.65ZM750.89 0.70L750.89 10.50L752.60 10.50L752.60 6.97C752.60 5.94 753.30 5.08 754.31 5.08C755.22 5.08 755.87 5.61 755.87 6.87L755.87 10.50L757.58 10.50L757.58 6.86C757.58 4.83 756.71 3.50 754.75 3.50C753.97 3.50 753.21 3.74 752.60 4.54L752.60 0.70Z"></path></g></svg>